<svg width="831" height="1043" viewBox="0 0 831 1043" fill="none" xmlns="http://www.w3.org/2000/svg">
<g clip-path="url(#clip0_113_2)">
<mask id="mask0_113_2" style="mask-type:alpha" maskUnits="userSpaceOnUse" x="0" y="4" width="831" height="1043">
<rect y="4" width="831" height="1043" fill="url(#paint0_linear_113_2)"/>
</mask>
<g mask="url(#mask0_113_2)">
<rect y="4" width="831" height="1043" fill="url(#paint1_linear_113_2)"/>
<path fill-rule="evenodd" clip-rule="evenodd" d="M267.143 -141.789C267.143 -160.941 274.593 -179.308 287.855 -192.85C301.116 -206.392 319.103 -214 337.857 -214C356.612 -214 374.598 -206.392 387.86 -192.85C401.121 -179.308 408.571 -160.941 408.571 -141.789V580.316C408.571 599.467 401.121 617.834 387.86 631.376C374.598 644.918 356.612 652.526 337.857 652.526C319.103 652.526 301.116 644.918 287.855 631.376C274.593 617.834 267.143 599.467 267.143 580.316V-141.789ZM479.286 363.684C479.286 344.533 486.736 326.166 499.997 312.624C513.259 299.082 531.245 291.474 550 291.474C568.755 291.474 586.741 299.082 600.003 312.624C613.264 326.166 620.714 344.533 620.714 363.684V1085.79C620.714 1104.94 613.264 1123.31 600.003 1136.85C586.741 1150.39 568.755 1158 550 1158C531.245 1158 513.259 1150.39 499.997 1136.85C486.736 1123.31 479.286 1104.94 479.286 1085.79V363.684ZM267.143 796.947C267.143 777.796 274.593 759.429 287.855 745.887C301.116 732.345 319.103 724.737 337.857 724.737C356.612 724.737 374.598 732.345 387.86 745.887C401.121 759.429 408.571 777.796 408.571 796.947V1085.79C408.571 1104.94 401.121 1123.31 387.86 1136.85C374.598 1150.39 356.612 1158 337.857 1158C319.103 1158 301.116 1150.39 287.855 1136.85C274.593 1123.31 267.143 1104.94 267.143 1085.79V796.947ZM691.429 -141.789C691.429 -160.941 698.879 -179.308 712.14 -192.85C725.402 -206.392 743.388 -214 762.143 -214C780.897 -214 798.884 -206.392 812.145 -192.85C825.407 -179.308 832.857 -160.941 832.857 -141.789V580.316C832.857 599.467 825.407 617.834 812.145 631.376C798.884 644.918 780.897 652.526 762.143 652.526C743.388 652.526 725.402 644.918 712.14 631.376C698.879 617.834 691.429 599.467 691.429 580.316V-141.789ZM691.429 796.947C691.429 777.796 698.879 759.429 712.14 745.887C725.402 732.345 743.388 724.737 762.143 724.737C780.897 724.737 798.884 732.345 812.145 745.887C825.407 759.429 832.857 777.796 832.857 796.947V1085.79C832.857 1104.94 825.407 1123.31 812.145 1136.85C798.884 1150.39 780.897 1158 762.143 1158C743.388 1158 725.402 1150.39 712.14 1136.85C698.879 1123.31 691.429 1104.94 691.429 1085.79V796.947ZM479.286 -141.789C479.286 -160.941 486.736 -179.308 499.997 -192.85C513.259 -206.392 531.245 -214 550 -214C568.755 -214 586.741 -206.392 600.003 -192.85C613.264 -179.308 620.714 -160.941 620.714 -141.789V147.053C620.714 166.204 613.264 184.571 600.003 198.113C586.741 211.655 568.755 219.263 550 219.263C531.245 219.263 513.259 211.655 499.997 198.113C486.736 184.571 479.286 166.204 479.286 147.053V-141.789ZM55 363.684C55 344.533 62.4502 326.166 75.7117 312.624C88.9732 299.082 106.96 291.474 125.714 291.474C144.469 291.474 162.455 299.082 175.717 312.624C188.978 326.166 196.429 344.533 196.429 363.684V1085.79C196.429 1104.94 188.978 1123.31 175.717 1136.85C162.455 1150.39 144.469 1158 125.714 1158C106.96 1158 88.9732 1150.39 75.7117 1136.85C62.4502 1123.31 55 1104.94 55 1085.79V363.684ZM55 -141.789C55 -160.941 62.4502 -179.308 75.7117 -192.85C88.9732 -206.392 106.96 -214 125.714 -214C144.469 -214 162.455 -206.392 175.717 -192.85C188.978 -179.308 196.429 -160.941 196.429 -141.789V147.053C196.429 166.204 188.978 184.571 175.717 198.113C162.455 211.655 144.469 219.263 125.714 219.263C106.96 219.263 88.9732 211.655 75.7117 198.113C62.4502 184.571 55 166.204 55 147.053V-141.789ZM903.571 363.684C903.571 344.533 911.022 326.166 924.283 312.624C937.545 299.082 955.531 291.474 974.286 291.474C993.04 291.474 1011.03 299.082 1024.29 312.624C1037.55 326.166 1045 344.533 1045 363.684V1085.79C1045 1104.94 1037.55 1123.31 1024.29 1136.85C1011.03 1150.39 993.04 1158 974.286 1158C955.531 1158 937.545 1150.39 924.283 1136.85C911.022 1123.31 903.571 1104.94 903.571 1085.79V363.684ZM903.571 -141.789C903.571 -160.941 911.022 -179.308 924.283 -192.85C937.545 -206.392 955.531 -214 974.286 -214C993.04 -214 1011.03 -206.392 1024.29 -192.85C1037.55 -179.308 1045 -160.941 1045 -141.789V147.053C1045 166.204 1037.55 184.571 1024.29 198.113C1011.03 211.655 993.04 219.263 974.286 219.263C955.531 219.263 937.545 211.655 924.283 198.113C911.022 184.571 903.571 166.204 903.571 147.053V-141.789Z" fill="black"/>
<ellipse cx="751" cy="525.5" rx="415" ry="412.5" fill="url(#paint2_linear_113_2)"/>
</g>
</g>
<defs>
<linearGradient id="paint0_linear_113_2" x1="-1003.08" y1="-22" x2="263.164" y2="816.463" gradientUnits="userSpaceOnUse">
<stop stop-color="#FF9700"/>
<stop offset="0.67" stop-color="#282E38"/>
</linearGradient>
<linearGradient id="paint1_linear_113_2" x1="-1003.08" y1="-22" x2="263.164" y2="816.463" gradientUnits="userSpaceOnUse">
<stop stop-color="#FF9700"/>
<stop offset="0.67" stop-color="#282E38"/>
</linearGradient>
<linearGradient id="paint2_linear_113_2" x1="663.264" y1="567.068" x2="262.123" y2="233.882" gradientUnits="userSpaceOnUse">
<stop offset="0.33" stop-color="#282E38"/>
<stop offset="1" stop-color="#FF9700"/>
</linearGradient>
<clipPath id="clip0_113_2">
<rect width="831" height="1043" fill="white"/>
</clipPath>
</defs>
</svg>
