<svg width="611" height="1405" viewBox="0 0 611 1405" fill="none" xmlns="http://www.w3.org/2000/svg">
<path d="M145.389 128.61C145.389 85.7399 160.111 0 160.111 0L0 0V128.61V256.092V383.573V511.055V638.537L0 766.018V893.5V1022.11V1149.59V1277.07V1383.12V1404.55H611L539.226 1383.12L535.03 1381.9C460.22 1360.13 319.398 1319.14 276.054 1277.07C233.726 1234.2 290.777 1191.33 290.777 1149.59C290.777 1106.72 233.726 1063.85 219.003 1022.11C204.28 979.24 233.726 936.37 320.223 893.5C408.56 851.758 553.949 808.888 568.672 766.018C583.395 724.277 465.611 681.407 393.837 638.537C320.223 595.667 290.777 553.925 248.449 511.055C204.28 468.185 145.389 426.443 115.943 383.573C86.497 340.703 86.497 297.833 101.22 256.092C115.943 213.222 145.389 170.352 145.389 128.61Z" fill="url(#paint0_linear_103_138)"/>
<defs>
<linearGradient id="paint0_linear_103_138" x1="-281.5" y1="-382.445" x2="-281.5" y2="1404.55" gradientUnits="userSpaceOnUse">
<stop offset="0.605" stop-color="#314A5F"/>
<stop offset="1" stop-color="#FF9700"/>
</linearGradient>
</defs>
</svg>
